:SAMPLES-PER-SECOND 30
:FULLY-SPECIFIED
:DEGREES
208
root  34.91841414 36.56685296 -14.23768021 10.91133595 -0.4433187246 4.596221924
lowerback  -8.607469559 2.02038002 0.9999454021
upperback  -4.165701389 2.151400089 -4.968359947
thorax  0.7349470258 0.7893596888 -5.535600185
lowerneck  -11.40880013 -9.54172039 -5.437439919
upperneck  11.84109974 -13.4625988 8.096899986
head  6.39041996 -6.31926012 2.144819975
lclavicle  0 -4.497500157e-015 -2.743230041e-014
lhumerus  -47.71039963 29.85810089 60.99769974
lradius  0.015005216 -6.507048965e-006 28.57542801
lwrist  3.192251654e-007 -3.790274832e-007 -30.63349724
lhand  -4.445301581e-031 -37.40610123 -10.61030006
lfingers  90 7.125020027 -90
lthumb  95.03889657 -25.42898564 101.6039999
rclavicle  0 -4.497500157e-015 -2.743230041e-014
rhumerus  56.01530075 -21.91959953 -46.91249847
rradius  -5.16745672e-007 2.214343908e-008 37.082901
rwrist  0.0006954420824 -0.004670973402 -157.522995
rhand  -1.771034257e-031 4.505040169 -7.966340065
rfingers  -90 -7.125020027 -90
rthumb  -85.2685288 -8.163959088 -59.76434818
rfemur  -12.57236671 13.85358143 11.99062347
rtibia  -1.125361323 -1.178553104 19.80590439
rfoot  0.1621501446 -20.75689507 -37.93068695
rtoes  3.838980138 19.6429218 -101.288929
lfemur  -6.131912708 -17.75379562 -22.60321045
ltibia  6.331515789 0.2977056503 8.552345276
lfoot  0.7861568332 -23.38458061 34.4173851
ltoes  -8.627735139 -18.11248621 -116.01532
209
root  34.91901488 36.56683794 -14.23492732 10.94513988 -0.4823664725 4.576635361
lowerback  -8.577429771 2.009540081 0.9526313543
upperback  -4.164899826 2.140470028 -4.952410221
thorax  0.714459002 0.7875987291 -5.49326992
lowerneck  -11.41569996 -9.522109985 -5.431200027
upperneck  11.8465004 -13.43169975 8.071350098
head  6.388840199 -6.305089951 2.139169931
lclavicle  0 -4.497500157e-015 -2.743230041e-014
lhumerus  -47.70069885 29.81669998 61.03879929
lradius  0.01532787457 -6.507048965e-006 28.57590485
lwrist  3.192251654e-007 -3.790274832e-007 -30.54360008
lhand  -0 -37.41360092 -10.57089996
lfingers  90 7.125020027 -90
lthumb  95.03366435 -25.39014269 101.6083227
rclavicle  0 -4.497500157e-015 -2.743230041e-014
rhumerus  55.98269653 -21.84929848 -46.86899948
rradius  -5.16745672e-007 2.214343908e-008 37.09809875
rwrist  0.0006954420824 -0.004670973402 -157.5590057
rhand  -1.770990629e-031 4.487090111 -7.898560047
rfingers  -90 -7.125020027 -90
rthumb  -85.23808625 -8.221285282 -59.77697661
rfemur  -12.61621284 13.86974812 11.99304008
rtibia  -1.108092785 -1.129122019 19.81202126
rfoot  0.1560992002 -20.67987823 -37.94399643
rtoes  3.845390409 19.6417156 -101.3079988
lfemur  -6.19324398 -17.69697189 -22.57337379
ltibia  6.312321186 0.3050190508 8.595964432
lfoot  0.7751069665 -23.39635468 34.37975693
ltoes  -8.676498845 -18.08978562 -116.1722702
210
root  34.91768124 36.5621792 -14.23133189 10.9578867 -0.5093916059 4.572391033
lowerback  -8.577559471 2.002680302 0.9634479284
upperback  -4.161950111 2.131079912 -4.948170185
thorax  0.7168710232 0.7845500112 -5.495850086
lowerneck  -11.41359997 -9.503350258 -5.391290188
upperneck  11.81760025 -13.40180016 8.031550407
head  6.371610165 -6.291810036 2.125149965
lclavicle  0 -4.497500157e-015 -2.743230041e-014
lhumerus  -47.70849991 29.81800079 61.03820038
lradius  0.01563877985 -6.507048965e-006 28.58176804
lwrist  3.192251654e-007 -3.790274832e-007 -30.5557003
lhand  -4.443487325e-031 -37.37549973 -10.68400002
lfingers  90 7.125020027 -90
lthumb  95.0409921 -25.50240271 101.57837
rclavicle  0 -4.497500157e-015 -2.743230041e-014
rhumerus  56 -21.83390045 -46.9510994
rradius  -5.16745672e-007 2.214343908e-008 37.10020065
rwrist  0.0006954420824 -0.004670973402 -157.5429993
rhand  -1.770923262e-031 4.459229946 -7.887710094
rfingers  -90 -7.125020027 -90
rthumb  -85.23881686 -8.228764604 -59.80331655
rfemur  -12.63201714 13.83105373 11.97883224
rtibia  -1.094975829 -1.177028179 19.81157112
rfoot  0.1650475115 -20.79888344 -37.85393143
rtoes  3.827904111 19.64500098 -101.2559817
lfemur  -6.092937469 -17.69063187 -22.61006546
ltibia  6.388924599 0.3046330512 8.425925255
lfoot  0.7689195871 -23.31943321 34.41927338
ltoes  -8.700934684 -18.0783498 -116.2509908
211
root  34.91746197 36.56413762 -14.22764485 10.95665455 -0.5356625915 4.581397533
lowerback  -8.569829941 1.999279976 0.9807863832
upperback  -4.174409866 2.124289989 -4.936699867
thorax  0.6992179751 0.7827802896 -5.494589806
lowerneck  -11.41510773 -9.447759628 -5.288060188
upperneck  11.82120037 -13.31540012 7.892230034
head  6.351960182 -6.253280163 2.076220036
lclavicle  0 -4.497500157e-015 -2.743230041e-014
lhumerus  -47.73270035 29.82500267 61.03829956
lradius  0.01593771391 -6.507048965e-006 28.58380127
lwrist  3.192251654e-007 -3.790274832e-007 -30.5333004
lhand  -4.443185217e-031 -37.37039948 -10.66049957
lfingers  90 7.125020027 -90
lthumb  95.03337464 -25.47951702 101.5706858
rclavicle  0 -4.497500157e-015 -2.743230041e-014
rhumerus  55.91159821 -21.76199913 -46.8655014
rradius  -5.16745672e-007 2.214343908e-008 37.15570068
rwrist  0.0006954420824 -0.004670973402 -157.6150055
rhand  -3.541852744e-031 4.460519791 -7.899250031
rfingers  -90 -7.125020027 -90
rthumb  -85.24437172 -8.218890835 -59.80282813
rfemur  -12.63537502 13.864604 11.97077465
rtibia  -1.089264035 -1.126552343 19.83565712
rfoot  0.1523828804 -20.71200371 -37.88312912
rtoes  3.84332491 19.64210449 -101.301854
lfemur  -5.909748554 -17.64876938 -22.69776344
ltibia  6.518135548 0.3110712171 8.137246132
lfoot  0.7470933795 -23.22064781 34.42389679
ltoes  -8.711290537 -18.07349113 -116.284367
212
root  34.91659089 36.56539617 -14.2237025 10.96063137 -0.5830695033 4.569309235
lowerback  -8.567899704 2.005199909 1.002909899
upperback  -4.179870129 2.129440069 -4.944220066
thorax  0.6940919757 0.7816598415 -5.514840126
lowerneck  -11.41810894 -9.421759605 -5.247169971
upperneck  11.80500031 -13.27649879 7.847670078
head  6.33743 -6.235809803 2.061429977
lclavicle  0 -4.497500157e-015 -2.743230041e-014
lhumerus  -47.74110031 29.8096981 61.03330231
lradius  0.01622445323 -6.507048965e-006 28.57509995
lwrist  3.192251654e-007 -3.790274832e-007 -30.5496006
lhand  -4.443108176e-031 -37.36909866 -10.60400009
lfingers  90 7.125020027 -90
lthumb  95.02018902 -25.42417991 101.56385
rclavicle  0 -4.497500157e-015 -2.743230041e-014
rhumerus  55.77350235 -21.6889019 -46.7466011
rradius  -5.16745672e-007 2.214343908e-008 37.30889893
rwrist  0.0006954420824 -0.004670973402 -157.7290039
rhand  -1.770856439e-031 4.431419849 -7.874579906
rfingers  -90 -7.125020027 -90
rthumb  -85.23837099 -8.238225419 -59.82938974
rfemur  -12.61725426 13.84844208 11.96585655
rtibia  -1.069057822 -1.182658911 19.78570557
rfoot  0.1898666471 -20.83286858 -37.78321075
rtoes  3.858956542 19.639156 -101.3483602
lfemur  -5.951749802 -17.62594604 -22.671875
ltibia  6.483258724 0.3165428042 8.213839531
lfoot  0.760686636 -23.2708416 34.44037628
ltoes  -8.700289066 -18.07865246 -116.2489103
213
root  34.91631155 36.56626724 -14.21841449 10.96695709 -0.6029905081 4.565196037
lowerback  -8.551829338 1.995210052 1.006149888
upperback  -4.182497025 2.116250038 -4.935039997
thorax  0.6830109954 0.7801567316 -5.508580208
lowerneck  -11.42073727 -9.415129662 -5.261459827
upperneck  11.79679966 -13.2677002 7.868350029
head  6.337769985 -6.230830193 2.070749998
lclavicle  0 -4.497500157e-015 -2.743230041e-014
lhumerus  -47.69779968 29.7371006 61.09790039
lradius  0.01649878174 -6.507048965e-006 28.55820084
lwrist  3.192251654e-007 -3.790274832e-007 -30.45030022
lhand  -4.444388229e-031 -37.39070129 -10.55819988
lfingers  90 7.125020027 -90
lthumb  95.02010057 -25.37856799 101.5825289
rclavicle  0 -4.497500157e-015 -2.743230041e-014
rhumerus  55.6934967 -21.64719772 -46.68259811
rradius  -5.16745672e-007 2.214343908e-008 37.38119888
rwrist  0.0006954420824 -0.004670973402 -157.8880005
rhand  -1.770892478e-031 4.44644022 -7.972280025
rfingers  -90 -7.125020027 -90
rthumb  -85.28466239 -8.154743993 -59.82188259
rfemur  -12.58936405 13.81686211 11.96475983
rtibia  -1.052845478 -1.188785315 19.73388863
rfoot  0.1997715235 -20.83909988 -37.78984451
rtoes  3.867786116 19.63748502 -101.3746323
lfemur  -6.071869373 -17.65548706 -22.63340378
ltibia  6.39243269 0.2826344371 8.419324875
lfoot  0.752533555 -23.28680229 34.38730621
ltoes  -8.665162904 -18.09507707 -116.1357675
214
root  34.91737486 36.56681391 -14.2157487 10.97520924 -0.6475102901 4.562030792
lowerback  -8.555829048 1.999780178 1.048469782
upperback  -4.183842182 2.119760036 -4.946790218
thorax  0.6936439872 0.7772390246 -5.544760227
lowerneck  -11.42199993 -9.414489746 -5.229499817
upperneck  11.75419998 -13.2652998 7.854010105
head  6.319739819 -6.230229855 2.063080072
lclavicle  0 -4.497500157e-015 -2.743230041e-014
lhumerus  -47.68650055 29.76699829 61.06980133
lradius  0.0167604778 -6.507048965e-006 28.54100227
lwrist  3.192251654e-007 -3.790274832e-007 -30.48279762
lhand  -4.445859391e-031 -37.41550064 -10.57359982
lfingers  90 7.125020027 -90
lthumb  95.0351394 -25.39272739 101.6105755
rclavicle  0 -4.497500157e-015 -2.743230041e-014
rhumerus  55.73610306 -21.67950249 -46.86980057
rradius  -5.16745672e-007 2.214343908e-008 37.38560104
rwrist  0.0006954420824 -0.004670973402 -157.753006
rhand  -1.770893439e-031 4.446839809 -8.036390305
rfingers  -90 -7.125020027 -90
rthumb  -85.31710172 -8.099384991 -59.82607519
rfemur  -12.58876133 13.82143021 11.95720387
rtibia  -1.040741324 -1.189087749 19.71458435
rfoot  0.2030548602 -20.84600449 -37.78495789
rtoes  3.866077314 19.63780872 -101.3695477
lfemur  -6.081124783 -17.66058922 -22.62941933
ltibia  6.386380196 0.2783394158 8.432662964
lfoot  0.7687879205 -23.28628349 34.44441605
ltoes  -8.663741479 -18.09573995 -116.1311911
215
root  34.91820989 36.56709326 -14.21068146 10.99451351 -0.6917225122 4.571681976
lowerback  -8.524419785 1.990229845 1.058130145
upperback  -4.184640884 2.107009888 -4.930870056
thorax  0.6719049811 0.7711290121 -5.535299778
lowerneck  -11.42990017 -9.392860413 -5.177070141
upperneck  11.73340034 -13.23250103 7.803989887
head  6.305170059 -6.215330124 2.04369998
lclavicle  0 -4.497500157e-015 -2.743230041e-014
lhumerus  -47.7016983 29.7587986 61.07369995
lradius  0.01700932346 -6.507048965e-006 28.52359962
lwrist  3.192251654e-007 -3.790274832e-007 -30.50239944
lhand  -4.442326759e-031 -37.35589981 -10.59930038
lfingers  90 7.125020027 -90
lthumb  95.01295254 -25.42010614 101.5492271
rclavicle  0 -4.497500157e-015 -2.743230041e-014
rhumerus  56.01170349 -21.80560112 -47.59690094
rradius  -5.16745672e-007 2.214343908e-008 37.32970047
rwrist  0.0006954420824 -0.004670973402 -157.1000061
rhand  -1.770790849e-031 4.403950214 -7.954810143
rfingers  -90 -7.125020027 -90
rthumb  -85.28527366 -8.166892932 -59.8619242
rfemur  -12.62478828 13.79619503 11.92984295
rtibia  -1.040873766 -1.235857606 19.73289871
rfoot  0.2338773757 -20.93681526 -37.63222122
rtoes  3.880672848 19.63503907 -101.4129803
lfemur  -6.000042439 -17.59290123 -22.68122482
ltibia  6.455275059 0.2878202498 8.276290894
lfoot  0.7690339088 -23.2488842 34.45147705
ltoes  -8.64364215 -18.10509876 -116.0664972
